<?xml version="1.0" encoding="UTF-8" standalone="no"?><!DOCTYPE svg PUBLIC "-//W3C//DTD SVG 1.1//EN" "http://www.w3.org/Graphics/SVG/1.1/DTD/svg11.dtd"><svg width="100%" height="100%" viewBox="0 0 5471 5471" version="1.1" xmlns="http://www.w3.org/2000/svg" xmlns:xlink="http://www.w3.org/1999/xlink" xml:space="preserve" xmlns:serif="http://www.serif.com/" style="fill-rule:evenodd;clip-rule:evenodd;stroke-linejoin:round;stroke-miterlimit:2;"><rect id="grid" x="3.228" y="1.908" width="5466.67" height="5466.67" style="fill:none;"/><clipPath id="_clip1"><rect x="3.228" y="1.908" width="5466.67" height="5466.67"/></clipPath><g clip-path="url(#_clip1)"><path d="M5469.9,3214.4l-0,1941.09c-0,172.793 -140.287,313.08 -313.08,313.08l-1941.09,-0c-172.793,-0 -313.08,-140.287 -313.08,-313.08l0,-1941.09c0,-172.793 140.287,-313.08 313.08,-313.08l1941.09,0c172.793,0 313.08,140.287 313.08,313.08Z" style="fill:#fff;"/><path d="M5469.9,314.988l-0,1941.09c-0,172.793 -140.287,313.08 -313.08,313.08l-1941.09,-0c-172.793,-0 -313.08,-140.287 -313.08,-313.08l0,-1941.09c0,-172.794 140.287,-313.08 313.08,-313.08l1941.09,0c172.793,0 313.08,140.286 313.08,313.08Z" style="fill:#fff;"/><path d="M2570.48,3214.4l-0,1941.09c-0,172.793 -140.287,313.08 -313.08,313.08l-1941.09,-0c-172.794,-0 -313.08,-140.287 -313.08,-313.08l0,-1941.09c0,-172.793 140.286,-313.08 313.08,-313.08l1941.09,0c172.793,0 313.08,140.287 313.08,313.08Z" style="fill:#fff;"/><path d="M2570.48,314.988l-0,1941.09c-0,172.793 -140.287,313.08 -313.08,313.08l-1941.09,-0c-172.794,-0 -313.08,-140.287 -313.08,-313.08l0,-1941.09c0,-172.794 140.286,-313.08 313.08,-313.08l1941.09,0c172.793,0 313.08,140.286 313.08,313.08Z" style="fill:#fff;"/></g></svg>