<?xml version="1.0" encoding="UTF-8" standalone="no"?><!DOCTYPE svg PUBLIC "-//W3C//DTD SVG 1.1//EN" "http://www.w3.org/Graphics/SVG/1.1/DTD/svg11.dtd"><svg width="100%" height="100%" viewBox="0 0 5471 5471" version="1.1" xmlns="http://www.w3.org/2000/svg" xmlns:xlink="http://www.w3.org/1999/xlink" xml:space="preserve" xmlns:serif="http://www.serif.com/" style="fill-rule:evenodd;clip-rule:evenodd;stroke-linejoin:round;stroke-miterlimit:2;"><rect id="grid_1_2" x="0.289" y="1.908" width="5466.67" height="5466.67" style="fill:none;"/><g><path d="M5029.43,1966.79l0,1536.91c0,147.177 -119.489,266.666 -266.666,266.666l-2072.26,0c-147.178,0 -266.667,-119.489 -266.667,-266.666l-0,-1536.91c-0,-147.177 119.489,-266.666 266.667,-266.666l2072.26,-0c147.177,-0 266.666,119.489 266.666,266.666Z" style="fill:#fff;"/><path d="M1972.71,1966.79l-0,1536.91c-0,147.177 -119.49,266.666 -266.667,266.666l-1001.56,0c-147.178,0 -266.667,-119.489 -266.667,-266.666l-0,-1536.91c-0,-147.177 119.489,-266.666 266.667,-266.666l1001.56,-0c147.177,-0 266.667,119.489 266.667,266.666Z" style="fill:#fff;"/></g></svg>