<?xml version="1.0" encoding="UTF-8" standalone="no"?><!DOCTYPE svg PUBLIC "-//W3C//DTD SVG 1.1//EN" "http://www.w3.org/Graphics/SVG/1.1/DTD/svg11.dtd"><svg width="100%" height="100%" viewBox="0 0 5467 5467" version="1.1" xmlns="http://www.w3.org/2000/svg" xmlns:xlink="http://www.w3.org/1999/xlink" xml:space="preserve" xmlns:serif="http://www.serif.com/" style="fill-rule:evenodd;clip-rule:evenodd;stroke-linejoin:round;stroke-miterlimit:2;"><rect id="icon_quote" x="-0" y="0" width="5466.67" height="5466.67" style="fill:none;"/><g><g><path d="M2541.1,1519.91l2102.96,-0l-0,373.197l-1981.89,-0c1.245,-14.417 1.88,-29.007 1.88,-43.744c-0,-125.946 -46.367,-241.149 -122.947,-329.453Z" style="fill:#fff;"/><rect x="822.607" y="2611.41" width="3821.45" height="373.197" style="fill:#fff;"/></g><g><path d="M1062.23,1597.82c6.645,2.364 14.653,2.426 23.524,-1.074c8.252,-3.256 34.75,-52.376 148.905,-52.376c168.329,0 304.991,136.662 304.991,304.992c0,64.846 -20.281,124.992 -54.841,174.437c-61.695,81.34 -163.128,125.096 -250.15,130.554c-6.198,0.389 -12.322,0.583 -18.354,0.583c-138.283,0 -380.434,-93.601 -393.408,-492.533c-12.391,-381.017 374.821,-706.275 650.745,-777.522l-0,99.126c-0,0 -407.421,130.514 -431.154,585.465c0,12.013 7.596,24.026 19.742,28.348Z" style="fill:#fff;"/><path d="M1988.38,1597.82c6.645,2.364 14.653,2.426 23.524,-1.074c8.252,-3.256 34.75,-52.376 148.905,-52.376c168.329,0 304.991,136.662 304.991,304.992c0,64.846 -20.281,124.992 -54.841,174.437c-61.695,81.34 -163.128,125.096 -250.15,130.554c-6.198,0.389 -12.322,0.583 -18.354,0.583c-138.283,0 -380.434,-93.601 -393.408,-492.533c-12.391,-381.017 374.821,-706.275 650.745,-777.522l-0,99.126c-0,0 -407.421,130.514 -431.154,585.465c0,12.013 7.596,24.026 19.742,28.348Z" style="fill:#fff;"/></g></g><g><g><path d="M2925.57,3946.76l-2102.96,-0l0,-373.197l1981.89,0c-1.245,14.417 -1.88,29.007 -1.88,43.744c-0,125.946 46.367,241.148 122.947,329.453Z" style="fill:#fff;"/><rect x="822.607" y="2611.41" width="1222.55" height="373.197" style="fill:#fff;"/><rect x="2389.6" y="2611.41" width="2254.47" height="373.197" style="fill:#fff;"/></g><g><path d="M4404.44,3868.85c-6.646,-2.365 -14.653,-2.427 -23.524,1.074c-8.252,3.256 -34.751,52.375 -148.905,52.375c-168.33,0 -304.992,-136.662 -304.992,-304.991c0,-64.846 20.282,-124.993 54.842,-174.437c61.695,-81.34 163.127,-125.096 250.15,-130.554c6.198,-0.389 12.322,-0.584 18.354,-0.584c138.283,0 380.434,93.602 393.407,492.534c12.391,381.017 -374.821,706.275 -650.744,777.522l-0,-99.127c-0,0 407.421,-130.513 431.153,-585.464c0,-12.013 -7.595,-24.027 -19.741,-28.348Z" style="fill:#fff;"/><path d="M3478.29,3868.85c-6.646,-2.365 -14.653,-2.427 -23.524,1.074c-8.252,3.256 -34.751,52.375 -148.905,52.375c-168.33,0 -304.992,-136.662 -304.992,-304.991c0,-64.846 20.282,-124.993 54.842,-174.437c61.695,-81.34 163.127,-125.096 250.15,-130.554c6.198,-0.389 12.322,-0.584 18.354,-0.584c138.283,0 380.434,93.602 393.407,492.534c12.391,381.017 -374.821,706.275 -650.744,777.522l0,-99.127c0,0 407.421,-130.513 431.153,-585.464c0,-12.013 -7.595,-24.027 -19.741,-28.348Z" style="fill:#fff;"/></g></g></svg>