<?xml version="1.0" encoding="UTF-8" standalone="no"?><!DOCTYPE svg PUBLIC "-//W3C//DTD SVG 1.1//EN" "http://www.w3.org/Graphics/SVG/1.1/DTD/svg11.dtd"><svg width="100%" height="100%" viewBox="0 0 5471 5471" version="1.1" xmlns="http://www.w3.org/2000/svg" xmlns:xlink="http://www.w3.org/1999/xlink" xml:space="preserve" xmlns:serif="http://www.serif.com/" style="fill-rule:evenodd;clip-rule:evenodd;stroke-linejoin:round;stroke-miterlimit:2;"><rect id="icon_article_reference" x="0.674" y="0.926" width="5466.67" height="5466.67" style="fill:none;"/><path d="M1988.03,1275.33l0,-362.7l2313.79,-0l0,1499.96l449.469,-0l0,2333.75l-2313.79,-0l0,-633.334l0,-866.625l-449.469,-0l0,-213.048l0,-414.688l316.667,-285.118l-0,596.187l1680.46,0l-0,-581.553l-0,-1118.86l-1680.46,0l-0,331.152l-316.667,-285.118Zm2446.6,3154.34l0,-1700.42l-132.802,0l0,517.125l-1547.66,-0l-0,1183.29l1680.46,0Z" style="fill:#fff;"/><path d="M1033.39,4050l0,-2310.4l824.343,-0l0,-319.97l358.936,478.303l-358.936,478.303l0,-319.97l-507.676,0l0,1677.07l1087.44,0l-0,316.667l-1404.11,-0Z" style="fill:#fff;"/><path d="M2533.33,1946.99l-875,787.827l0,-1575.65l875,787.827Z" style="fill:#fff;"/><path d="M2533.33,1946.99l-875,787.827l0,-1575.65l875,787.827Z" style="fill:#fff;"/><rect x="2886.97" y="3917.55" width="1414.86" height="200.458" style="fill:#fff;"/><rect x="2886.97" y="3413.39" width="1414.86" height="200.458" style="fill:#fff;"/><rect x="2437.5" y="1409.26" width="1414.86" height="200.458" style="fill:#fff;"/><rect x="2734.01" y="1913.43" width="1118.35" height="200.458" style="fill:#fff;"/><rect x="2437.5" y="2417.59" width="1414.86" height="200.458" style="fill:#fff;"/></svg>