<?xml version="1.0" encoding="UTF-8" standalone="no"?><!DOCTYPE svg PUBLIC "-//W3C//DTD SVG 1.1//EN" "http://www.w3.org/Graphics/SVG/1.1/DTD/svg11.dtd"><svg width="100%" height="100%" viewBox="0 0 5471 5467" version="1.1" xmlns="http://www.w3.org/2000/svg" xmlns:xlink="http://www.w3.org/1999/xlink" xml:space="preserve" xmlns:serif="http://www.serif.com/" style="fill-rule:evenodd;clip-rule:evenodd;stroke-linejoin:round;stroke-miterlimit:2;"><rect id="icon_articles" x="1.448" y="0" width="5466.67" height="5466.67" style="fill:none;"/><g><g><path d="M1140.06,2968.62l0,-2447.79l2670.66,0l0,1731.31l518.793,0l-0,2693.7l-2670.66,0l-0,-731.015l-0,-1000.29l-518.793,-0l0,-245.907Zm365.508,-1700.05l-0,1580.45l1939.64,-0l-0,-671.249l-0,-1291.43l-1939.64,-0l-0,382.227Zm2458.44,3311.76l0,-1962.68l-153.285,-0l0,596.883l-1786.36,-0l0,1365.8l1939.64,-0Z" style="fill:#fff;"/></g><g><rect x="1782.65" y="1111.27" width="952.131" height="329.496" style="fill:#fff;"/><rect x="1782.65" y="1702.93" width="1385.47" height="329.496" style="fill:#fff;"/><rect x="2301.44" y="3436.85" width="1385.47" height="329.496" style="fill:#fff;"/><rect x="1782.65" y="2294.6" width="1385.47" height="329.496" style="fill:#fff;"/><rect x="2301.44" y="4028.51" width="1385.47" height="329.496" style="fill:#fff;"/></g></g></svg>