<?xml version="1.0" encoding="UTF-8" standalone="no"?><!DOCTYPE svg PUBLIC "-//W3C//DTD SVG 1.1//EN" "http://www.w3.org/Graphics/SVG/1.1/DTD/svg11.dtd"><svg width="100%" height="100%" viewBox="0 0 5471 5471" version="1.1" xmlns="http://www.w3.org/2000/svg" xmlns:xlink="http://www.w3.org/1999/xlink" xml:space="preserve" xmlns:serif="http://www.serif.com/" style="fill-rule:evenodd;clip-rule:evenodd;stroke-linejoin:round;stroke-miterlimit:2;"><rect id="icon_verifications" x="1.493" y="3.237" width="5466.67" height="5466.67" style="fill:none;"/><g><path d="M4674.93,2661.52c34.662,33.327 54.242,79.269 54.242,127.273c-0,48.005 -19.58,93.947 -54.242,127.273l-299.626,288.081c-27.77,26.701 -48.53,59.796 -60.454,96.373c-11.923,36.578 -14.643,75.516 -7.921,113.387l72.526,408.611c8.39,47.271 -2.861,95.91 -31.168,134.746c-28.308,38.837 -71.239,64.533 -118.934,71.186l-412.278,57.514c-38.212,5.331 -74.523,19.942 -105.738,42.548c-31.215,22.606 -56.377,52.514 -73.271,87.091l-182.277,373.065c-21.087,43.158 -58.87,75.917 -104.673,90.751c-45.802,14.834 -95.687,10.469 -138.196,-12.092l-367.455,-195.021c-34.057,-18.076 -72.05,-27.529 -110.634,-27.529c-38.584,-0 -76.576,9.453 -110.633,27.529l-367.455,195.021c-42.51,22.561 -92.394,26.926 -138.197,12.092c-45.802,-14.834 -83.586,-47.593 -104.673,-90.751l-182.276,-373.065c-16.894,-34.577 -42.056,-64.485 -73.271,-87.091c-31.215,-22.606 -67.527,-37.217 -105.738,-42.548l-412.279,-57.514c-47.694,-6.653 -90.626,-32.349 -118.933,-71.186c-28.307,-38.836 -39.558,-87.475 -31.168,-134.746l72.525,-408.611c6.722,-37.871 4.002,-76.809 -7.921,-113.387c-11.923,-36.577 -32.683,-69.672 -60.454,-96.373l-299.625,-288.081c-34.662,-33.326 -54.242,-79.268 -54.242,-127.273c-0,-48.004 19.58,-93.946 54.242,-127.273l299.625,-288.081c27.771,-26.7 48.531,-59.795 60.454,-96.373c11.923,-36.577 14.643,-75.515 7.921,-113.386l-72.525,-408.611c-8.39,-47.271 2.861,-95.91 31.168,-134.746c28.307,-38.837 71.239,-64.533 118.933,-71.186l412.279,-57.514c38.211,-5.331 74.523,-19.942 105.738,-42.548c31.215,-22.606 56.377,-52.514 73.271,-87.091l182.276,-373.065c21.087,-43.159 58.871,-75.917 104.673,-90.751c45.803,-14.834 95.687,-10.47 138.197,12.092l367.455,195.021c34.057,18.075 72.049,27.529 110.633,27.529c38.584,0 76.577,-9.454 110.634,-27.529l367.455,-195.021c42.509,-22.562 92.394,-26.926 138.196,-12.092c45.803,14.834 83.586,47.592 104.673,90.751l182.277,373.065c16.894,34.577 42.056,64.485 73.271,87.091c31.215,22.606 67.526,37.217 105.738,42.548l412.278,57.514c47.695,6.653 90.626,32.349 118.934,71.186c28.307,38.836 39.558,87.475 31.168,134.746l-72.526,408.611c-6.722,37.871 -4.002,76.809 7.921,113.386c11.924,36.578 32.684,69.673 60.454,96.373l299.626,288.081Zm-2277.57,1073.99l1455.05,-1450.37l-405.895,-404.589l-1128.92,1125.29l-484.034,-482.477l-326.137,325.087l889.93,887.065Z" style="fill:#fff;"/></g></svg>