<?xml version="1.0" encoding="UTF-8" standalone="no"?><!DOCTYPE svg PUBLIC "-//W3C//DTD SVG 1.1//EN" "http://www.w3.org/Graphics/SVG/1.1/DTD/svg11.dtd"><svg width="100%" height="100%" viewBox="0 0 5471 5471" version="1.1" xmlns="http://www.w3.org/2000/svg" xmlns:xlink="http://www.w3.org/1999/xlink" xml:space="preserve" xmlns:serif="http://www.serif.com/" style="fill-rule:evenodd;clip-rule:evenodd;stroke-linejoin:round;stroke-miterlimit:2;"><rect id="icon_file_video" x="1.262" y="0.916" width="5466.67" height="5466.67" style="fill:none;"/><path d="M4751.88,4751.33l-4034.57,0l0,-4034.17l4034.57,-0l-0,4034.17Zm-316.667,-316.666l0,-3400.83l-1751.24,0l-1650,0l0,3400.83l3401.24,-0Z" style="fill:#fff;"/><path d="M2734.6,1879.18c471.923,-0 855.065,383.141 855.065,855.064c-0,471.923 -383.142,855.065 -855.065,855.065c-471.923,-0 -855.064,-383.142 -855.064,-855.065c-0,-471.923 383.141,-855.064 855.064,-855.064Zm-329.169,427.532l-0,854.979l855.15,-427.511l-855.15,-427.468Z" style="fill:#fff;"/></svg>