<?xml version="1.0" encoding="UTF-8" standalone="no"?><!DOCTYPE svg PUBLIC "-//W3C//DTD SVG 1.1//EN" "http://www.w3.org/Graphics/SVG/1.1/DTD/svg11.dtd"><svg width="100%" height="100%" viewBox="0 0 5471 5471" version="1.1" xmlns="http://www.w3.org/2000/svg" xmlns:xlink="http://www.w3.org/1999/xlink" xml:space="preserve" xmlns:serif="http://www.serif.com/" style="fill-rule:evenodd;clip-rule:evenodd;stroke-linejoin:round;stroke-miterlimit:2;"><rect id="icon_article_reference" x="2.122" y="0.926" width="5466.67" height="5466.67" style="fill:none;"/><path d="M1376.45,2007.43l-230.64,-0l0,1652.16l1046.22,0l-0,316.667l-1362.88,-0l0,-2298.33l316.667,1.212l0,-1.212l230.64,0l0,-800.214l781.088,964.962l-781.088,964.962l0,-800.214Z" style="fill:#fff;"/><path d="M1653.48,781.455l0,-285.622l2670.66,0l-0,1731.31l518.792,0l-0,2693.7l-2670.66,0l-0,-731.015l-0,-1000.29l-518.793,-0l0,-285.623l365.508,-488.646l-0,408.761l1939.64,-0l-0,-671.249l-0,-1291.43l-1939.64,-0l-0,408.761l-365.508,-488.647Zm839.631,896.478l1188.43,0l-0,329.496l-1188.43,-0l-0,-329.496Zm1984.31,2877.39l0,-1962.68l-153.284,-0l-0,596.883l-1786.36,-0l0,1365.8l1939.64,-0Zm-277.088,-551.813l0,329.495l-1385.47,0l0,-329.495l1385.47,-0Zm0,-591.667l0,329.496l-1385.47,-0l0,-329.496l1385.47,-0Zm-518.792,-1142.25l-0,329.495l-1385.47,0l0,-329.495l1385.47,-0Zm-433.338,-1183.33l-0,329.496l-952.131,0l0,-329.496l952.131,0Z" style="fill:#fff;"/></svg>