<?xml version="1.0" encoding="UTF-8" standalone="no"?><!DOCTYPE svg PUBLIC "-//W3C//DTD SVG 1.1//EN" "http://www.w3.org/Graphics/SVG/1.1/DTD/svg11.dtd"><svg width="100%" height="100%" viewBox="0 0 5471 5471" version="1.1" xmlns="http://www.w3.org/2000/svg" xmlns:xlink="http://www.w3.org/1999/xlink" xml:space="preserve" xmlns:serif="http://www.serif.com/" style="fill-rule:evenodd;clip-rule:evenodd;stroke-linejoin:round;stroke-miterlimit:2;"><rect id="icon_text" x="1.042" y="1.68" width="5466.67" height="5466.67" style="fill:none;"/><path d="M1033.76,1034.6l1700.62,-0l-0,611.245l-173.865,-0l-86.933,-407.497l-412.93,0l0,1529.47l287.964,65.199l0,157.566l-929.092,-0l0,-157.566l287.964,-65.199l0,-1529.47l-415.646,0l-84.216,407.497l-173.865,-0l-0,-611.245Z" style="fill:#fff;fill-rule:nonzero;"/><rect x="3020.14" y="1034.6" width="1414.86" height="332.159" style="fill:#fff;"/><rect x="3020.14" y="2402.85" width="1414.86" height="332.159" style="fill:#fff;"/><rect x="3020.14" y="1718.73" width="1414.86" height="332.159" style="fill:#fff;"/><rect x="1033.76" y="3400.09" width="3401.24" height="332.159" style="fill:#fff;"/><rect x="1033.76" y="4256.44" width="3401.24" height="332.159" style="fill:#fff;"/></svg>