<?xml version="1.0" encoding="UTF-8" standalone="no"?><!DOCTYPE svg PUBLIC "-//W3C//DTD SVG 1.1//EN" "http://www.w3.org/Graphics/SVG/1.1/DTD/svg11.dtd"><svg width="100%" height="100%" viewBox="0 0 5471 5471" version="1.1" xmlns="http://www.w3.org/2000/svg" xmlns:xlink="http://www.w3.org/1999/xlink" xml:space="preserve" xmlns:serif="http://www.serif.com/" style="fill-rule:evenodd;clip-rule:evenodd;stroke-linejoin:round;stroke-miterlimit:2;"><rect id="icon_file_image" x="1.543" y="0.916" width="5466.67" height="5466.67" style="fill:none;"/><path d="M4752.16,4751.33l-4034.57,0l0,-4034.17l4034.57,-0l-0,4034.17Zm-316.667,-316.666l-0,-3400.83l-1751.24,0l-1650,0l-0,3400.83l3401.24,-0Z" style="fill:#fff;"/><path d="M778.791,4304.12l984.709,-1926.32c46.993,-91.931 139.757,-151.523 242.904,-156.043c103.147,-4.521 200.768,46.728 255.624,134.195l545.295,869.473l464.791,-370.626c61.248,-48.839 139.802,-70.511 217.428,-59.985c77.626,10.527 147.572,52.336 193.602,115.723l984.506,1355.75c63.388,87.291 72.453,202.762 23.464,298.875c-48.99,96.114 -147.754,156.623 -255.633,156.618l-3401.24,-0.161c-99.888,-0.005 -192.585,-51.962 -244.718,-137.167c-52.134,-85.204 -56.2,-191.391 -10.734,-280.333Z" style="fill:#fff;"/><circle cx="3451.03" cy="2018.3" r="490.084" style="fill:#fff;"/></svg>