<?xml version="1.0" encoding="UTF-8" standalone="no"?><!DOCTYPE svg PUBLIC "-//W3C//DTD SVG 1.1//EN" "http://www.w3.org/Graphics/SVG/1.1/DTD/svg11.dtd"><svg width="100%" height="100%" viewBox="0 0 5471 5471" version="1.1" xmlns="http://www.w3.org/2000/svg" xmlns:xlink="http://www.w3.org/1999/xlink" xml:space="preserve" xmlns:serif="http://www.serif.com/" style="fill-rule:evenodd;clip-rule:evenodd;stroke-linejoin:round;stroke-miterlimit:2;"><rect id="icon_heading" x="2.886" y="3.777" width="5466.67" height="5466.67" style="fill:none;"/><path d="M718.934,1291.72l2513.38,-0l0,903.37l-256.958,-0l-128.479,-602.247l-610.277,0l-0,2260.43l425.588,96.359l-0,232.869l-1373.12,0l-0,-232.869l425.588,-96.359l-0,-2260.43l-614.292,0l-124.464,602.247l-256.959,-0l0,-903.37Z" style="fill:#fff;fill-rule:nonzero;"/><path d="M3232.31,2432.89l1521.2,-0l-0,546.755l-155.522,0l-77.761,-364.503l-369.363,-0l-0,1368.1l257.582,58.321l0,140.941l-831.068,0l-0,-140.941l257.582,-58.321l0,-1368.1l-371.793,-0l-75.331,364.503l-155.522,0l0,-546.755Z" style="fill:#fff;fill-rule:nonzero;"/></svg>