<?xml version="1.0" encoding="UTF-8" standalone="no"?><!DOCTYPE svg PUBLIC "-//W3C//DTD SVG 1.1//EN" "http://www.w3.org/Graphics/SVG/1.1/DTD/svg11.dtd"><svg width="100%" height="100%" viewBox="0 0 5471 5467" version="1.1" xmlns="http://www.w3.org/2000/svg" xmlns:xlink="http://www.w3.org/1999/xlink" xml:space="preserve" xmlns:serif="http://www.serif.com/" style="fill-rule:evenodd;clip-rule:evenodd;stroke-linejoin:round;stroke-miterlimit:2;"><rect id="quote_symbol" x="3.653" y="0" width="5466.67" height="5466.67" style="fill:none;"/><g><g><path d="M1331.07,2799.63c16.054,5.712 35.399,5.862 56.829,-2.595c19.935,-7.866 83.949,-126.528 359.721,-126.528c406.646,0 736.791,330.145 736.791,736.791c-0,156.654 -48.995,301.954 -132.484,421.4c-149.041,196.501 -394.08,302.204 -604.307,315.391c-14.972,0.939 -29.768,1.409 -44.34,1.409c-334.059,0 -919.043,-226.121 -950.383,-1189.85c-29.934,-920.45 905.483,-1706.2 1572.05,-1878.32l-0,239.467c-0,-0 -984.237,315.291 -1041.57,1414.35c0,29.022 18.35,58.043 47.691,68.483Z" style="fill:#fff;"/><path d="M3568.43,2799.63c16.054,5.712 35.399,5.862 56.829,-2.595c19.935,-7.866 83.95,-126.528 359.721,-126.528c406.646,0 736.791,330.145 736.791,736.791c-0,156.654 -48.995,301.954 -132.484,421.4c-149.041,196.501 -394.08,302.204 -604.307,315.391c-14.972,0.939 -29.768,1.409 -44.339,1.409c-334.06,0 -919.044,-226.121 -950.384,-1189.85c-29.934,-920.45 905.483,-1706.2 1572.05,-1878.32l-0,239.467c-0,-0 -984.237,315.291 -1041.57,1414.35c0,29.022 18.35,58.043 47.691,68.483Z" style="fill:#fff;"/></g></g></svg>