<?xml version="1.0" encoding="UTF-8" standalone="no"?><!DOCTYPE svg PUBLIC "-//W3C//DTD SVG 1.1//EN" "http://www.w3.org/Graphics/SVG/1.1/DTD/svg11.dtd"><svg width="100%" height="100%" viewBox="0 0 5471 5467" version="1.1" xmlns="http://www.w3.org/2000/svg" xmlns:xlink="http://www.w3.org/1999/xlink" xml:space="preserve" xmlns:serif="http://www.serif.com/" style="fill-rule:evenodd;clip-rule:evenodd;stroke-linejoin:round;stroke-miterlimit:2;"><rect id="quote_symbol" x="3.887" y="0" width="5466.67" height="5466.67" style="fill:none;"/><g><g><path d="M1331.31,2799.63c16.054,5.712 35.398,5.862 56.828,-2.595c19.935,-7.866 83.95,-126.528 359.722,-126.528c406.645,0 736.79,330.145 736.79,736.791c0,156.654 -48.995,301.954 -132.484,421.4c-149.041,196.501 -394.079,302.204 -604.306,315.391c-14.973,0.939 -29.768,1.409 -44.34,1.409c-334.06,0 -919.043,-226.121 -950.384,-1189.85c-29.933,-920.45 905.484,-1706.2 1572.05,-1878.32l0,239.467c0,-0 -984.237,315.291 -1041.57,1414.35c-0,29.022 18.349,58.043 47.691,68.483Z" style="fill:#fff;"/><path d="M3568.67,2799.63c16.054,5.712 35.398,5.862 56.828,-2.595c19.935,-7.866 83.95,-126.528 359.722,-126.528c406.646,0 736.79,330.145 736.79,736.791c0,156.654 -48.995,301.954 -132.484,421.4c-149.041,196.501 -394.079,302.204 -604.306,315.391c-14.973,0.939 -29.768,1.409 -44.34,1.409c-334.06,0 -919.043,-226.121 -950.384,-1189.85c-29.933,-920.45 905.484,-1706.2 1572.05,-1878.32l0,239.467c0,-0 -984.237,315.291 -1041.57,1414.35c-0,29.022 18.349,58.043 47.691,68.483Z" style="fill:#fff;"/></g></g></svg>