<?xml version="1.0" encoding="UTF-8" standalone="no"?><!DOCTYPE svg PUBLIC "-//W3C//DTD SVG 1.1//EN" "http://www.w3.org/Graphics/SVG/1.1/DTD/svg11.dtd"><svg width="100%" height="100%" viewBox="0 0 5471 5471" version="1.1" xmlns="http://www.w3.org/2000/svg" xmlns:xlink="http://www.w3.org/1999/xlink" xml:space="preserve" xmlns:serif="http://www.serif.com/" style="fill-rule:evenodd;clip-rule:evenodd;stroke-linejoin:round;stroke-miterlimit:2;"><rect id="symbol_side_switch" x="3.228" y="2.478" width="5466.67" height="5466.67" style="fill:none;"/><clipPath id="_clip1"><rect x="3.228" y="2.478" width="5466.67" height="5466.67"/></clipPath><g clip-path="url(#_clip1)"><path d="M5469.9,669.145l-0,4133.33c-0,367.943 -298.724,666.667 -666.667,666.667l-4133.33,-0c-367.944,-0 -666.667,-298.724 -666.667,-666.667l0,-4133.33c0,-367.944 298.723,-666.667 666.667,-666.667l4133.33,-0c367.943,-0 666.667,298.723 666.667,666.667Zm-2733.33,292.754c0,-367.944 -298.723,-666.667 -666.666,-666.667l-1131.16,0c-367.943,0 -666.666,298.723 -666.666,666.667l-0,3547.83c-0,367.943 298.723,666.666 666.666,666.666l1131.16,0c367.943,0 666.666,-298.723 666.666,-666.666l0,-3547.83Z" style="fill:#fff;"/></g></svg>