<?xml version="1.0" encoding="UTF-8" standalone="no"?><!DOCTYPE svg PUBLIC "-//W3C//DTD SVG 1.1//EN" "http://www.w3.org/Graphics/SVG/1.1/DTD/svg11.dtd"><svg width="100%" height="100%" viewBox="0 0 5471 5471" version="1.1" xmlns="http://www.w3.org/2000/svg" xmlns:xlink="http://www.w3.org/1999/xlink" xml:space="preserve" xmlns:serif="http://www.serif.com/" style="fill-rule:evenodd;clip-rule:evenodd;stroke-linejoin:round;stroke-miterlimit:2;"><rect id="symbol_add" x="0.854" y="2.478" width="5466.67" height="5466.67" style="fill:none;"/><clipPath id="_clip1"><rect x="0.854" y="2.478" width="5466.67" height="5466.67"/></clipPath><g clip-path="url(#_clip1)"><path d="M469.426,3204.38c-258.612,-0 -468.572,-209.96 -468.572,-468.572c0,-258.611 209.96,-468.571 468.572,-468.571l1796.19,-0l0,-1796.19c0,-258.611 209.96,-468.571 468.571,-468.571c258.612,-0 468.572,209.96 468.572,468.571l-0,1796.19l1796.19,-0c258.612,-0 468.572,209.96 468.572,468.571c-0,258.612 -209.96,468.572 -468.572,468.572l-1796.19,-0l-0,1796.19c-0,258.612 -209.96,468.572 -468.572,468.572c-258.611,-0 -468.571,-209.96 -468.571,-468.572l0,-1796.19l-1796.19,-0Z" style="fill:#fff;"/></g></svg>