<?xml version="1.0" encoding="UTF-8" standalone="no"?><!DOCTYPE svg PUBLIC "-//W3C//DTD SVG 1.1//EN" "http://www.w3.org/Graphics/SVG/1.1/DTD/svg11.dtd"><svg width="100%" height="100%" viewBox="0 0 5471 5471" version="1.1" xmlns="http://www.w3.org/2000/svg" xmlns:xlink="http://www.w3.org/1999/xlink" xml:space="preserve" xmlns:serif="http://www.serif.com/" style="fill-rule:evenodd;clip-rule:evenodd;stroke-linejoin:round;stroke-miterlimit:2;"><rect id="symbol_checkmark" x="1.726" y="3.237" width="5466.67" height="5466.67" style="fill:none;"/><path d="M4923.86,2592.52c39.106,37.721 61.196,89.719 61.196,144.052c-0,54.333 -22.09,106.332 -61.196,144.052l-338.035,326.061c-31.33,30.22 -54.752,67.679 -68.203,109.078c-13.452,41.4 -16.521,85.471 -8.937,128.335l81.822,462.481c9.466,53.502 -3.227,108.554 -35.163,152.51c-31.936,43.957 -80.371,73.04 -134.18,80.571l-465.13,65.096c-43.109,6.034 -84.075,22.571 -119.292,48.157c-35.217,25.587 -63.604,59.437 -82.664,98.573l-205.643,422.249c-23.79,48.848 -66.417,85.925 -118.091,102.714c-51.674,16.79 -107.954,11.85 -155.912,-13.685l-414.561,-220.733c-38.423,-20.458 -81.285,-31.158 -124.815,-31.158c-43.53,0 -86.393,10.7 -124.816,31.158l-414.56,220.733c-47.959,25.535 -104.239,30.475 -155.913,13.685c-51.674,-16.789 -94.301,-53.866 -118.091,-102.714l-205.643,-422.249c-19.06,-39.136 -47.447,-72.986 -82.664,-98.573c-35.216,-25.586 -76.182,-42.123 -119.292,-48.157l-465.13,-65.096c-53.809,-7.531 -102.243,-36.614 -134.18,-80.571c-31.936,-43.956 -44.629,-99.008 -35.163,-152.51l81.823,-462.481c7.583,-42.864 4.514,-86.935 -8.937,-128.335c-13.452,-41.399 -36.873,-78.858 -68.204,-109.078l-338.035,-326.061c-39.106,-37.72 -61.195,-89.719 -61.195,-144.052c-0,-54.333 22.089,-106.331 61.195,-144.052l338.035,-326.06c31.331,-30.221 54.752,-67.679 68.204,-109.079c13.451,-41.399 16.52,-85.47 8.937,-128.335l-81.823,-462.48c-9.466,-53.502 3.227,-108.554 35.163,-152.511c31.937,-43.956 80.371,-73.04 134.18,-80.57l465.13,-65.097c43.11,-6.033 84.076,-22.571 119.292,-48.157c35.217,-25.586 63.604,-59.437 82.664,-98.572l205.643,-422.249c23.79,-48.848 66.417,-85.925 118.091,-102.715c51.674,-16.79 107.954,-11.85 155.913,13.686l414.56,220.732c38.423,20.459 81.286,31.159 124.816,31.159c43.53,-0 86.392,-10.7 124.815,-31.159l414.561,-220.732c47.958,-25.536 104.238,-30.476 155.912,-13.686c51.674,16.79 94.301,53.867 118.091,102.715l205.643,422.249c19.06,39.135 47.447,72.986 82.664,98.572c35.217,25.586 76.183,42.124 119.292,48.157l465.13,65.097c53.809,7.53 102.244,36.614 134.18,80.57c31.936,43.957 44.629,99.009 35.163,152.511l-81.822,462.48c-7.584,42.865 -4.515,86.936 8.937,128.335c13.451,41.4 36.873,78.858 68.203,109.079l338.035,326.06Zm-2569.53,1215.58l1641.58,-1641.58l-457.928,-457.928l-1273.64,1273.64l-546.084,-546.084l-367.945,367.945l1004.01,1004.01Z" style="fill:#fff;"/></svg>