<?xml version="1.0" encoding="UTF-8" standalone="no"?><!DOCTYPE svg PUBLIC "-//W3C//DTD SVG 1.1//EN" "http://www.w3.org/Graphics/SVG/1.1/DTD/svg11.dtd"><svg width="100%" height="100%" viewBox="0 0 5471 5471" version="1.1" xmlns="http://www.w3.org/2000/svg" xmlns:xlink="http://www.w3.org/1999/xlink" xml:space="preserve" xmlns:serif="http://www.serif.com/" style="fill-rule:evenodd;clip-rule:evenodd;stroke-linejoin:round;stroke-miterlimit:2;"><rect id="symbol_search" x="2.952" y="2.478" width="5466.67" height="5466.67" style="fill:none;"/><clipPath id="_clip1"><rect x="2.952" y="2.478" width="5466.67" height="5466.67"/></clipPath><g clip-path="url(#_clip1)"><path d="M2298.19,2.478c1266.78,-0 2295.24,1028.46 2295.24,2295.24c-0,1266.78 -1028.46,2295.24 -2295.24,2295.24c-1266.78,-0 -2295.24,-1028.46 -2295.24,-2295.24c0,-1266.78 1028.46,-2295.24 2295.24,-2295.24Zm-0,672.579c-895.572,-0 -1622.66,727.091 -1622.66,1622.66c0,895.572 727.091,1622.66 1622.66,1622.66c895.572,-0 1622.66,-727.091 1622.66,-1622.66c-0,-895.572 -727.091,-1622.66 -1622.66,-1622.66Z" style="fill:#fff;"/><path d="M4134.96,3621.84l1281.6,1281.6c70.735,70.735 70.735,185.591 0,256.326l-256.326,256.326c-70.735,70.735 -185.591,70.735 -256.326,0l-1281.6,-1281.6c-70.735,-70.735 -70.735,-185.591 -0,-256.326l256.326,-256.326c70.735,-70.735 185.591,-70.735 256.326,-0Z" style="fill:#fff;"/></g></svg>