<?xml version="1.0" encoding="UTF-8" standalone="no"?>
<!DOCTYPE svg PUBLIC "-//W3C//DTD SVG 1.1//EN" "http://www.w3.org/Graphics/SVG/1.1/DTD/svg11.dtd">
<svg width="100%" height="100%" viewBox="0 0 1312 1312" version="1.1" xmlns="http://www.w3.org/2000/svg" xmlns:xlink="http://www.w3.org/1999/xlink" xml:space="preserve" xmlns:serif="http://www.serif.com/" style="fill-rule:evenodd;clip-rule:evenodd;stroke-linejoin:round;stroke-miterlimit:2;">
    <g transform="matrix(1,0,0,1,-6471,-6924)">
        <g id="logoV2" transform="matrix(1,0,0,1,4767,-4724)">
            <rect x="1704" y="11648" width="1312" height="1312" style="fill:none;"/>
            <g transform="matrix(1,0,0,1,-1,-9.09495e-13)">
                <path d="M2598.31,12337L2426.5,12039.4C2422.4,12032.3 2424.83,12023.2 2431.94,12019.1L2470.56,11996.8L2657.24,12320.1L2618.61,12342.4C2611.51,12346.5 2602.41,12344.1 2598.31,12337ZM2202.52,12454.2L2127.07,12323.5L2426.14,12063.7L2577.03,12325.1L2410.82,12382.4L2432.62,12420.1C2439.7,12432.4 2435.49,12448.1 2423.22,12455.2L2325.81,12511.5C2319.57,12515.1 2312.43,12515.7 2306,12513.9C2299.79,12512.2 2294.22,12508.1 2290.74,12502.1L2253.05,12436.8L2202.52,12454.2ZM2387.91,12390.3L2275.96,12428.9L2311.34,12490.2C2311.86,12491.1 2313.02,12491.4 2313.92,12490.9L2411.33,12434.6C2412.23,12434.1 2412.54,12432.9 2412.02,12432L2387.91,12390.3ZM2123.69,12342.6L2184.27,12447.6C2188.37,12454.7 2185.94,12463.8 2178.83,12467.9L2140.21,12490.2L2064.76,12359.5L2103.39,12337.2C2110.49,12333.1 2119.59,12335.5 2123.69,12342.6Z" style="fill:rgb(253,224,0);"/>
                <path d="M2099.92,12304.7L2395.47,12048L2394.9,12046.7L2392.86,12037.7L2392.62,12028.7L2394.11,12019.8L2397.24,12011.4L2401.98,12003.7L2408.26,11996.9L2415.94,11991.4L2482.28,11953.1L2700.95,12331.8L2634.61,12370.1L2625.98,12374L2616.95,12376L2607.89,12376.3L2599.05,12374.8L2590.66,12371.7L2582.93,12366.9L2576.13,12360.6L2575.33,12359.5L2457.94,12400L2460.33,12404.1L2465.11,12414.8L2467.62,12425.9L2467.91,12437L2466.09,12447.9L2462.23,12458.2L2456.4,12467.8L2448.68,12476.1L2439.22,12482.9L2341.81,12539.2L2330.99,12544L2319.69,12546.5L2308.35,12546.7L2297.31,12544.7L2287.19,12540.8L2277.89,12535L2269.71,12527.4L2263.03,12518.1L2238.54,12475.6L2205.23,12487.1L2202.51,12490.1L2194.83,12495.6L2128.49,12533.9L2021.05,12347.8L2087.39,12309.5L2096.02,12305.6L2099.92,12304.7ZM2598.31,12337C2602.41,12344.1 2611.51,12346.5 2618.61,12342.4L2657.24,12320.1L2470.56,11996.8L2431.94,12019.1C2424.83,12023.2 2422.4,12032.3 2426.5,12039.4L2598.31,12337ZM2202.52,12454.2L2253.05,12436.8L2290.74,12502.1C2294.22,12508.1 2299.79,12512.2 2306,12513.9C2312.43,12515.7 2319.57,12515.1 2325.81,12511.5L2423.22,12455.2C2435.49,12448.1 2439.7,12432.4 2432.62,12420.1L2410.82,12382.4L2577.03,12325.1L2426.14,12063.7L2127.07,12323.5L2202.52,12454.2ZM2387.91,12390.3L2412.02,12432C2412.54,12432.9 2412.23,12434.1 2411.33,12434.6L2313.92,12490.9C2313.02,12491.4 2311.86,12491.1 2311.34,12490.2L2275.96,12428.9L2387.91,12390.3ZM2324,12448.1L2332.23,12443.3L2323.08,12446.5L2324,12448.1ZM2123.69,12342.6C2119.59,12335.5 2110.49,12333.1 2103.39,12337.2L2064.76,12359.5L2140.21,12490.2L2178.83,12467.9C2185.94,12463.8 2188.37,12454.7 2184.27,12447.6L2123.69,12342.6Z" style="fill:rgb(0,28,43);"/>
            </g>
        </g>
    </g>
</svg>
