<?xml version="1.0" encoding="UTF-8" standalone="no"?>
<!DOCTYPE svg PUBLIC "-//W3C//DTD SVG 1.1//EN" "http://www.w3.org/Graphics/SVG/1.1/DTD/svg11.dtd">
<svg width="100%" height="100%" viewBox="0 0 1312 1312" version="1.1" xmlns="http://www.w3.org/2000/svg" xmlns:xlink="http://www.w3.org/1999/xlink" xml:space="preserve" xmlns:serif="http://www.serif.com/" style="fill-rule:evenodd;clip-rule:evenodd;stroke-linejoin:round;stroke-miterlimit:2;">
    <g transform="matrix(1,0,0,1,-16137,-10135.8)">
        <g id="logoV2" transform="matrix(1,0,0,1,14433,-1512.19)">
            <rect x="1704" y="11648" width="1312" height="1312" style="fill:none;"/>
            <clipPath id="_clip1">
                <rect x="1704" y="11648" width="1312" height="1312"/>
            </clipPath>
            <g clip-path="url(#_clip1)">
                <path d="M1831.64,12346L1747,12346C1723.82,12346 1705,12327.2 1705,12304C1705,12280.8 1723.82,12262 1747,12262L1831.64,12262C1830.55,12275.9 1830,12289.9 1830,12304C1830,12318.1 1830.55,12332.1 1831.64,12346ZM2319,11774.6L2319,11690C2319,11666.8 2337.82,11648 2361,11648C2384.18,11648 2403,11666.8 2403,11690L2403,11774.6C2389.14,11773.6 2375.14,11773 2361,11773C2346.87,11773 2332.86,11773.6 2319,11774.6ZM2890.36,12262L2975,12262C2998.18,12262 3017,12280.8 3017,12304C3017,12327.2 2998.18,12346 2975,12346L2890.36,12346C2891.45,12332.1 2892,12318.1 2892,12304C2892,12289.9 2891.45,12275.9 2890.36,12262ZM2403,12833.4L2403,12918C2403,12941.2 2384.18,12960 2361,12960C2337.82,12960 2319,12941.2 2319,12918L2319,12833.4C2332.86,12834.4 2346.87,12835 2361,12835C2375.14,12835 2389.14,12834.4 2403,12833.4ZM2361,11779C2650.76,11779 2886,12014.2 2886,12304C2886,12593.8 2650.76,12829 2361,12829C2071.24,12829 1836,12593.8 1836,12304C1836,12014.2 2071.24,11779 2361,11779ZM2361,11877C2125.33,11877 1934,12068.3 1934,12304C1934,12539.7 2125.33,12731 2361,12731C2596.67,12731 2788,12539.7 2788,12304C2788,12068.3 2596.67,11877 2361,11877ZM2202.52,12454.2L2127.07,12323.5L2426.14,12063.7L2577.03,12325.1L2410.82,12382.4L2432.62,12420.1C2439.7,12432.4 2435.49,12448.1 2423.22,12455.2L2325.81,12511.5C2319.57,12515.1 2312.43,12515.7 2306,12513.9C2299.79,12512.2 2294.22,12508.1 2290.74,12502.1L2253.05,12436.8L2202.52,12454.2ZM2387.91,12390.3L2275.96,12428.9L2311.34,12490.2C2311.86,12491.1 2313.02,12491.4 2313.92,12490.9L2411.33,12434.6C2412.23,12434.1 2412.54,12432.9 2412.02,12432L2387.91,12390.3ZM2416,12502L2416,12674C2416,12688 2403,12684 2403,12711.5L2403,12722.9C2389.18,12724.3 2375.17,12725 2361,12725C2346.83,12725 2332.82,12724.3 2319,12722.9L2319,12711.5C2319,12684 2306,12688 2306,12674L2306,12551.2L2308.58,12551.6L2320.69,12551.3L2332.73,12548.6L2344.26,12543.4L2416,12502ZM2021.86,12359L1991,12359C1977,12359 1981,12346 1953.5,12346L1942.07,12346C1940.7,12332.2 1940,12318.2 1940,12304C1940,12289.8 1940.7,12275.8 1942.07,12262L1953.5,12262C1981,12262 1977,12249 1991,12249L2156.59,12249L2097.6,12300.2L2094.47,12301L2084.93,12305.2L2014.35,12346L2021.86,12359ZM2123.69,12342.6L2184.27,12447.6C2188.37,12454.7 2185.94,12463.8 2178.83,12467.9L2140.21,12490.2L2064.76,12359.5L2103.39,12337.2C2110.49,12333.1 2119.59,12335.5 2123.69,12342.6ZM2306.5,12118.8C2306.18,12117.6 2306,12116.2 2306,12114.5L2306,11934C2306,11920 2319,11924 2319,11896.5L2319,11885.1C2332.82,11883.7 2346.83,11883 2361,11883C2375.17,11883 2389.18,11883.7 2403,11885.1L2403,11896.5C2403,11924 2416,11920 2416,11934L2416,11985.7L2413.49,11987.1L2405.01,11993.2L2398.07,12000.7L2392.83,12009.3L2389.37,12018.5L2387.73,12028.3L2387.99,12038.3L2389.82,12046.4L2306.5,12118.8ZM2658.8,12249L2731,12249C2745,12249 2741,12262 2768.5,12262L2779.93,12262C2781.3,12275.8 2782,12289.8 2782,12304C2782,12318.2 2781.3,12332.2 2779.93,12346L2768.5,12346C2741,12346 2745,12359 2731,12359L2663.67,12359L2707.65,12333.6L2658.8,12249ZM2598.31,12337L2426.5,12039.4C2422.4,12032.3 2424.83,12023.2 2431.94,12019.1L2470.56,11996.8L2657.24,12320.1L2618.61,12342.4C2611.51,12346.5 2602.41,12344.1 2598.31,12337ZM2764.93,11959.5C2746.72,11938.1 2726.86,11918.3 2705.53,11900.1L2765.47,11840.1C2781.86,11823.7 2808.47,11823.7 2824.86,11840.1C2841.25,11856.5 2841.25,11883.1 2824.86,11899.5L2764.93,11959.5ZM2764.93,12648.5L2824.86,12708.5C2841.25,12724.9 2841.25,12751.5 2824.86,12767.9C2808.47,12784.3 2781.86,12784.3 2765.47,12767.9L2705.53,12707.9C2726.86,12689.7 2746.72,12669.9 2764.93,12648.5ZM2016.47,12707.9L1956.54,12767.9C1940.14,12784.3 1913.53,12784.3 1897.14,12767.9C1880.75,12751.5 1880.75,12724.9 1897.14,12708.5L1957.07,12648.5C1975.28,12669.9 1995.14,12689.7 2016.47,12707.9ZM1957.07,11959.5L1897.14,11899.5C1880.75,11883.1 1880.75,11856.5 1897.14,11840.1C1913.53,11823.7 1940.14,11823.7 1956.54,11840.1L2016.47,11900.1C1995.14,11918.3 1975.28,11938.1 1957.07,11959.5Z" style="fill:white;"/>
            </g>
        </g>
    </g>
</svg>
