<?xml version="1.0" encoding="UTF-8" standalone="no"?>
<!DOCTYPE svg PUBLIC "-//W3C//DTD SVG 1.1//EN" "http://www.w3.org/Graphics/SVG/1.1/DTD/svg11.dtd">
<svg width="100%" height="100%" viewBox="0 0 1312 1312" version="1.1" xmlns="http://www.w3.org/2000/svg" xmlns:xlink="http://www.w3.org/1999/xlink" xml:space="preserve" xmlns:serif="http://www.serif.com/" style="fill-rule:evenodd;clip-rule:evenodd;stroke-linejoin:round;stroke-miterlimit:2;">
    <g transform="matrix(1,0,0,1,-4931,-6910.67)">
        <g id="logoV2" transform="matrix(1,0,0,1,3227,-4737.33)">
            <rect x="1704" y="11648" width="1312" height="1312" style="fill:none;"/>
            <clipPath id="_clip1">
                <rect x="1704" y="11648" width="1312" height="1312"/>
            </clipPath>
            <g clip-path="url(#_clip1)">
                <g id="Form" transform="matrix(1,0,0,1,461,11493)">
                    <g id="Armer">
                        <g transform="matrix(1,0,0,1.05,-1,-39.55)">
                            <path d="M1371.64,851L1287,851C1263.82,851 1245,833.077 1245,811C1245,788.923 1263.82,771 1287,771L1371.64,771C1370.55,784.198 1370,797.538 1370,811C1370,824.462 1370.55,837.802 1371.64,851ZM1482.07,851C1480.7,837.842 1480,824.499 1480,811C1480,797.501 1480.7,784.158 1482.07,771L1493.5,771C1521,771 1517,758.619 1531,758.619L1711.5,758.619C1725.5,758.619 1721.5,771 1749,771L1775.83,771C1771.4,783.567 1769,797.019 1769,811C1769,824.981 1771.4,838.433 1775.83,851L1749,851C1721.5,851 1725.5,863.381 1711.5,863.381L1531,863.381C1517,863.381 1521,851 1493.5,851L1482.07,851Z" style="fill:rgb(253,224,0);"/>
                        </g>
                        <g transform="matrix(0,1,-1.05,0,2751.55,-1089)">
                            <path d="M1371.64,851L1287,851C1263.82,851 1245,833.077 1245,811C1245,788.923 1263.82,771 1287,771L1371.64,771C1370.55,784.198 1370,797.538 1370,811C1370,824.462 1370.55,837.802 1371.64,851ZM1482.07,851C1480.7,837.842 1480,824.499 1480,811C1480,797.501 1480.7,784.158 1482.07,771L1493.5,771C1521,771 1517,758.619 1531,758.619L1711.5,758.619C1725.5,758.619 1721.5,771 1749,771L1775.83,771C1771.4,783.567 1769,797.019 1769,811C1769,824.981 1771.4,838.433 1775.83,851L1749,851C1721.5,851 1725.5,863.381 1711.5,863.381L1531,863.381C1517,863.381 1521,851 1493.5,851L1482.07,851Z" style="fill:rgb(253,224,0);"/>
                        </g>
                        <g transform="matrix(-1,0,0,-1.05,3801,1663.55)">
                            <path d="M1371.64,851L1287,851C1263.82,851 1245,833.077 1245,811C1245,788.923 1263.82,771 1287,771L1371.64,771C1370.55,784.198 1370,797.538 1370,811C1370,824.462 1370.55,837.802 1371.64,851ZM1482.07,771L1493.5,771C1521,771 1517,758.619 1531,758.619L1711.5,758.619C1725.5,758.619 1721.5,771 1749,771L1775.83,771C1771.4,783.567 1769,797.019 1769,811C1769,824.981 1771.4,838.433 1775.83,851L1749,851C1721.5,851 1725.5,863.381 1711.5,863.381L1531,863.381C1517,863.381 1521,851 1493.5,851L1482.07,851C1480.7,837.842 1480,824.499 1480,811C1480,797.501 1480.7,784.158 1482.07,771Z" style="fill:rgb(253,224,0);"/>
                        </g>
                        <g transform="matrix(0,-1,1.05,0,1048.45,2713)">
                            <path d="M1482.07,851C1480.7,837.842 1480,824.499 1480,811C1480,797.501 1480.7,784.158 1482.07,771L1493.5,771C1521,771 1517,758.619 1531,758.619L1711.5,758.619C1725.5,758.619 1721.5,771 1749,771L1775.83,771C1771.4,783.567 1769,797.019 1769,811C1769,824.981 1771.4,838.433 1775.83,851L1749,851C1721.5,851 1725.5,863.381 1711.5,863.381L1531,863.381C1517,863.381 1521,851 1493.5,851L1482.07,851ZM1371.64,851L1287,851C1263.82,851 1245,833.077 1245,811C1245,788.923 1263.82,771 1287,771L1371.64,771C1370.55,784.198 1370,797.538 1370,811C1370,824.462 1370.55,837.802 1371.64,851Z" style="fill:rgb(253,224,0);"/>
                        </g>
                    </g>
                    <g transform="matrix(1.01147,0,0,1.01147,-21.7935,-9.31385)">
                        <path d="M1900,687C1968.99,687 2025,743.011 2025,812C2025,880.989 1968.99,937 1900,937C1831.01,937 1775,880.989 1775,812C1775,743.011 1831.01,687 1900,687ZM1900,757C1869.64,757 1845,781.645 1845,812C1845,842.355 1869.64,867 1900,867C1930.36,867 1955,842.355 1955,812C1955,781.645 1930.36,757 1900,757ZM1900,763C1927.04,763 1949,784.956 1949,812C1949,839.044 1927.04,861 1900,861C1872.96,861 1851,839.044 1851,812C1851,784.956 1872.96,763 1900,763Z" style="fill:rgb(253,224,0);"/>
                    </g>
                    <g id="Circle">
                        <g id="Origin" transform="matrix(1.22951,0,0,1.22951,-436.066,-186.361)">
                            <path d="M1900,385C2135.67,385 2327,576.332 2327,812C2327,1047.67 2135.67,1239 1900,1239C1664.33,1239 1473,1047.67 1473,812C1473,576.332 1664.33,385 1900,385ZM1900,464.707C1708.32,464.707 1552.71,620.324 1552.71,812C1552.71,1003.68 1708.32,1159.29 1900,1159.29C2091.68,1159.29 2247.29,1003.68 2247.29,812C2247.29,620.324 2091.68,464.707 1900,464.707Z" style="fill:rgb(253,224,0);"/>
                        </g>
                        <path d="M2303.93,467.466C2285.72,446.144 2265.86,426.278 2244.53,408.069L2304.47,348.138C2320.86,331.747 2347.47,331.747 2363.86,348.138C2380.25,364.529 2380.25,391.144 2363.86,407.535L2303.93,467.466ZM2303.93,1156.53L2363.86,1216.46C2380.25,1232.86 2380.25,1259.47 2363.86,1275.86C2347.47,1292.25 2320.86,1292.25 2304.47,1275.86L2244.53,1215.93C2265.86,1197.72 2285.72,1177.86 2303.93,1156.53ZM1555.47,1215.93L1495.54,1275.86C1479.14,1292.25 1452.53,1292.25 1436.14,1275.86C1419.75,1259.47 1419.75,1232.86 1436.14,1216.46L1496.07,1156.53C1514.28,1177.86 1534.14,1197.72 1555.47,1215.93ZM1496.07,467.466L1436.14,407.535C1419.75,391.144 1419.75,364.529 1436.14,348.138C1452.53,331.747 1479.14,331.747 1495.54,348.138L1555.47,408.069C1534.14,426.278 1514.28,446.144 1496.07,467.466Z" style="fill:rgb(253,224,0);"/>
                    </g>
                </g>
            </g>
        </g>
    </g>
</svg>
